# xmcd
#
# Track frame offsets: 
#        183
#        18933
#        43083
#        67308
#        86183
#        105183
#        121133
#        140920
#        158158
#        175258
#        190958
#
# Disc length: 2806 seconds
#
# Revision: 6
# Processed by: cddbd v1.5.2PL0 Copyright (c) Steve Scherf et al.
# Submitted via: ExactAudioCopy v1.0b3
#
DISCID=980af40b
DTITLE=谭咏麟 - 墙上的肖像
DYEAR=1987
DGENRE=Chinese Pop
TTITLE0=Maggie
TTITLE1=无边的思忆
TTITLE2=千面女郎
TTITLE3=根
TTITLE4=墙上的肖像
TTITLE5=计时炸弹
TTITLE6=我没法相信
TTITLE7=千年埋藏
TTITLE8=情不变
TTITLE9=曾经
TTITLE10=痴心的废墟
EXTD=
EXTT0=
EXTT1=
EXTT2=
EXTT3=
EXTT4=
EXTT5=
EXTT6=
EXTT7=
EXTT8=
EXTT9=
EXTT10=
PLAYORDER=
